<?xml version="1.0" encoding="UTF-8" standalone="no"?>
<!-- Created with Inkscape (http://www.inkscape.org/) -->
<svg
   xmlns:dc="http://purl.org/dc/elements/1.1/"
   xmlns:cc="http://creativecommons.org/ns#"
   xmlns:rdf="http://www.w3.org/1999/02/22-rdf-syntax-ns#"
   xmlns:svg="http://www.w3.org/2000/svg"
   xmlns="http://www.w3.org/2000/svg"
   xmlns:xlink="http://www.w3.org/1999/xlink"
   xmlns:sodipodi="http://sodipodi.sourceforge.net/DTD/sodipodi-0.dtd"
   xmlns:inkscape="http://www.inkscape.org/namespaces/inkscape"
   width="320"
   height="60"
   id="svg2413"
   sodipodi:version="0.32"
   inkscape:version="0.46"
   version="1.0"
   sodipodi:docname="duality_logo-full.svg"
   inkscape:output_extension="org.inkscape.output.svg.inkscape"
   inkscape:export-filename="C:\Users\Joshua\Documents\gprojects\dualitysvn\icons\duality_logo-full.png"
   inkscape:export-xdpi="90"
   inkscape:export-ydpi="90">
  <defs
     id="defs2415">
    <inkscape:perspective
       sodipodi:type="inkscape:persp3d"
       inkscape:vp_x="0 : 30 : 1"
       inkscape:vp_y="0 : 1000 : 0"
       inkscape:vp_z="468 : 30 : 1"
       inkscape:persp3d-origin="234 : 20 : 1"
       id="perspective2421" />
    <filter
       id="filter2451"
       inkscape:collect="always">
      <feBlend
         id="feBlend2453"
         in2="BackgroundImage"
         mode="lighten"
         inkscape:collect="always" />
    </filter>
    <linearGradient
       y2="17.30265"
       x2="21.850195"
       y1="17.30265"
       x1="6.7261076"
       gradientTransform="matrix(-1.1470062,-9.9488475e-3,-1.1411954e-2,0.9999505,50.4262,-2.1534323)"
       gradientUnits="userSpaceOnUse"
       id="linearGradient2449"
       xlink:href="#linearGradient2419"
       inkscape:collect="always" />
    <linearGradient
       y2="17.30265"
       x2="21.850195"
       y1="17.30265"
       x1="6.7261076"
       gradientTransform="matrix(1.1235697,0.2013533,-0.230965,0.9795187,1.6372063,-7.5634252)"
       gradientUnits="userSpaceOnUse"
       id="linearGradient2447"
       xlink:href="#linearGradient2419"
       inkscape:collect="always" />
    <linearGradient
       y2="17.30265"
       x2="21.850195"
       y1="17.30265"
       x1="6.7261076"
       gradientTransform="matrix(-1.1470062,-9.9488475e-3,-1.1411954e-2,0.9999505,50.4262,-2.1534323)"
       gradientUnits="userSpaceOnUse"
       id="linearGradient2434"
       xlink:href="#linearGradient2419"
       inkscape:collect="always" />
    <linearGradient
       y2="17.30265"
       x2="21.850195"
       y1="17.30265"
       x1="6.7261076"
       gradientTransform="matrix(1.1235697,0.2013533,-0.230965,0.9795187,1.6372063,-7.5634252)"
       gradientUnits="userSpaceOnUse"
       id="linearGradient2432"
       xlink:href="#linearGradient2419"
       inkscape:collect="always" />
    <linearGradient
       y2="17.30265"
       x2="21.850195"
       y1="17.30265"
       x1="6.7261076"
       gradientTransform="matrix(-1.1470062,-9.9488475e-3,-1.1411954e-2,0.9999505,50.4262,-2.1534323)"
       gradientUnits="userSpaceOnUse"
       id="linearGradient3206"
       xlink:href="#linearGradient2419"
       inkscape:collect="always" />
    <linearGradient
       gradientTransform="matrix(1.1235697,0.2013533,-0.230965,0.9795187,1.6372063,-7.5634252)"
       gradientUnits="userSpaceOnUse"
       y2="17.30265"
       x2="21.850195"
       y1="17.30265"
       x1="6.7261076"
       id="linearGradient3197"
       xlink:href="#linearGradient2419"
       inkscape:collect="always" />
    <inkscape:perspective
       id="perspective2391"
       inkscape:persp3d-origin="24 : 16 : 1"
       inkscape:vp_z="48 : 24 : 1"
       inkscape:vp_y="0 : 1000 : 0"
       inkscape:vp_x="0 : 24 : 1"
       sodipodi:type="inkscape:persp3d" />
    <linearGradient
       id="linearGradient2419">
      <stop
         id="stop2421"
         offset="0"
         style="stop-color:#73d216;stop-opacity:1;" />
      <stop
         id="stop2423"
         offset="1"
         style="stop-color:#4e9a06;stop-opacity:1" />
    </linearGradient>
  </defs>
  <sodipodi:namedview
     id="base"
     pagecolor="#ffffff"
     bordercolor="#666666"
     borderopacity="1.0"
     inkscape:pageopacity="0.0"
     inkscape:pageshadow="2"
     inkscape:zoom="1.2"
     inkscape:cx="177.13297"
     inkscape:cy="30"
     inkscape:document-units="px"
     inkscape:current-layer="layer1"
     showgrid="false"
     inkscape:window-width="640"
     inkscape:window-height="689"
     inkscape:window-x="184"
     inkscape:window-y="67" />
  <metadata
     id="metadata2418">
    <rdf:RDF>
      <cc:Work
         rdf:about="">
        <dc:format>image/svg+xml</dc:format>
        <dc:type
           rdf:resource="http://purl.org/dc/dcmitype/StillImage" />
      </cc:Work>
    </rdf:RDF>
  </metadata>
  <g
     id="layer1"
     inkscape:label="Layer 1"
     inkscape:groupmode="layer">
    <g
       style="enable-background:new"
       id="g2555"
       transform="translate(12.895833,4.7291655)">
      <g
         style="opacity:0.24305558;display:inline;filter:url(#filter2451)"
         inkscape:label="Glow"
         id="layer4">
        <g
           transform="matrix(1.0396624,0,0,1.0517554,-0.7201646,-0.6291714)"
           id="g2412">
          <path
             style="opacity:1;fill:#ce5c00;fill-opacity:1;stroke:none;stroke-width:1.79999995;stroke-linecap:round;stroke-miterlimit:4;stroke-dasharray:none;stroke-dashoffset:0;stroke-opacity:1"
             id="path2414"
             d="M 23.654458,19.094102 C 23.590415,20.006275 23.583345,20.921411 23.551601,21.835378 C 23.483547,23.258993 23.459114,24.684366 23.436938,26.109589 C 23.431349,27.202528 23.443713,28.295342 23.459423,29.388098 C 23.471971,30.179404 23.467462,30.970856 23.462876,31.76222 C 23.467494,32.457607 23.475485,33.152963 23.480304,33.848338 C 23.481676,34.370446 23.485927,34.892518 23.492891,35.41457 C 23.496312,35.817096 23.508053,36.218986 23.464149,36.619106 C 23.407097,36.986722 23.381099,37.357994 23.367094,37.730388 C 23.354271,38.061952 23.374745,38.393731 23.325783,38.721936 C 23.266411,39.033922 23.259471,39.354171 23.19871,39.665451 C 23.128379,39.934534 23.116868,40.215926 23.057534,40.487235 C 22.996927,40.752313 22.96212,41.019844 22.878741,41.277749 C 22.788033,41.531745 22.65114,41.755401 22.575716,42.016315 C 22.529889,42.282119 22.451121,42.537572 22.406705,42.803618 C 22.393214,42.987353 22.353713,43.164815 22.312608,43.342491 L 20.420899,44.362456 C 20.456818,44.187923 20.520628,44.020724 20.525466,43.840542 C 20.556543,43.562247 20.632665,43.302633 20.684954,43.031537 C 20.742603,42.721094 20.84152,42.533018 20.973744,42.2621 C 21.082639,42.020136 21.120833,41.767265 21.163291,41.502452 C 21.234517,41.232206 21.257068,40.959381 21.30943,40.683397 C 21.385393,40.377134 21.40717,40.067616 21.447983,39.752822 C 21.462784,39.658244 21.489177,39.565785 21.497976,39.470266 C 21.518839,39.243782 21.485833,39.010846 21.508531,38.783978 C 21.522816,38.405253 21.541355,38.025067 21.597356,37.650843 C 21.655525,37.258515 21.654613,36.867797 21.649975,36.47031 C 21.656903,35.943457 21.661196,35.416588 21.662543,34.889682 C 21.667306,34.187794 21.675157,33.485926 21.679359,32.784024 C 21.674234,31.991486 21.668735,31.198842 21.681537,30.406357 C 21.698984,29.297221 21.71633,28.188075 21.738064,27.079037 C 21.755714,25.654591 21.804629,24.231263 21.842794,22.807398 C 21.856727,21.927841 21.841318,21.04818 21.774114,20.171285 L 23.654458,19.094102 z" />
          <path
             style="opacity:1;fill:#f57900;fill-opacity:1;stroke:none;stroke-width:1.79999995;stroke-linecap:round;stroke-miterlimit:4;stroke-dasharray:none;stroke-dashoffset:0;stroke-opacity:1"
             id="path2416"
             d="M 25.188208,18.145553 C 25.124165,19.057726 25.117095,19.97286 25.085351,20.886829 C 25.017297,22.310444 24.992864,23.735817 24.970688,25.16104 C 24.965099,26.253978 24.977463,27.346793 24.993173,28.439548 C 25.005721,29.230854 25.001212,30.022307 24.996626,30.813671 C 25.001244,31.509058 25.009235,32.204413 25.014054,32.899788 C 25.015426,33.421895 25.019677,33.943967 25.026641,34.466021 C 25.030062,34.868546 25.041803,35.270436 24.997899,35.670557 C 24.940847,36.038172 24.914849,36.409444 24.900844,36.781838 C 24.888021,37.113403 24.908495,37.445182 24.859533,37.773385 C 24.800161,38.085371 24.793221,38.405621 24.73246,38.716901 C 24.662129,38.985985 24.650618,39.267377 24.591284,39.538686 C 24.530677,39.803763 24.49587,40.071295 24.412491,40.329198 C 24.321783,40.583194 24.18489,40.806851 24.109466,41.067765 C 24.063639,41.333569 23.984871,41.589022 23.940455,41.855069 C 23.926964,42.038803 23.887463,42.216264 23.846358,42.393942 L 21.954649,43.413907 C 21.990568,43.239374 22.054378,43.072175 22.059216,42.891991 C 22.090293,42.613696 22.166415,42.354084 22.218704,42.082986 C 22.276353,41.772545 22.37527,41.584467 22.507494,41.313551 C 22.616389,41.071585 22.654583,40.818715 22.697041,40.553903 C 22.768267,40.283655 22.790818,40.01083 22.84318,39.734848 C 22.919143,39.428583 22.94092,39.119065 22.981733,38.804272 C 22.996534,38.709694 23.022927,38.617236 23.031726,38.521716 C 23.052589,38.295233 23.019583,38.062297 23.042281,37.835427 C 23.056566,37.456704 23.075105,37.076517 23.131106,36.702293 C 23.189275,36.309965 23.188363,35.919247 23.183725,35.52176 C 23.190653,34.994907 23.194946,34.468037 23.196293,33.941132 C 23.201056,33.239245 23.208907,32.537377 23.213109,31.835474 C 23.207984,31.042936 23.202485,30.250292 23.215287,29.457806 C 23.232734,28.348672 23.25008,27.239525 23.271814,26.130487 C 23.289464,24.706042 23.338379,23.282712 23.376544,21.858849 C 23.390477,20.979292 23.375068,20.099629 23.307864,19.222734 L 25.188208,18.145553 z" />
          <path
             style="opacity:1;fill:#ce5c00;fill-opacity:1;stroke:none;stroke-width:1.79999995;stroke-linecap:round;stroke-miterlimit:4;stroke-dasharray:none;stroke-dashoffset:0;stroke-opacity:1"
             id="path2418"
             d="M 26.085925,18.109538 C 26.059512,18.510575 26.074067,18.911918 26.031212,19.311595 C 25.98399,19.677522 25.955511,20.045608 25.940312,20.414815 C 25.939943,20.82954 25.88492,21.239209 25.839497,21.649777 C 25.801549,22.036169 25.792606,22.424983 25.787829,22.813353 C 25.781586,23.151692 25.797727,23.490261 25.771609,23.82757 C 25.715122,24.23412 25.673585,24.641924 25.653749,25.052792 C 25.662436,25.441539 25.610789,25.823551 25.562365,26.206846 C 25.514003,26.569581 25.507111,26.936969 25.502028,27.30304 C 25.499131,27.632467 25.500369,27.961916 25.500928,28.291351 C 25.501506,28.612412 25.501695,28.933472 25.501808,29.254534 C 25.502559,29.55489 25.486602,29.853487 25.536693,30.149611 C 25.590517,30.483089 25.616325,30.820591 25.632171,31.158659 C 25.644784,31.48715 25.645092,31.816018 25.645587,32.144749 C 25.645645,32.466238 25.6452,32.787726 25.64498,33.109216 C 25.65466,33.418231 25.625555,33.730251 25.658013,34.037727 C 25.713634,34.317331 25.749618,34.599668 25.769589,34.8851 C 25.787295,35.202304 25.80024,35.406719 25.801103,35.724416 C 25.801379,36.04602 25.800816,36.381823 25.800545,36.703426 C 25.822695,37.034568 25.82868,37.345817 25.838618,37.623179 C 25.851404,37.979989 25.827939,38.224789 25.829878,38.54005 C 25.847844,38.832674 25.827286,39.143777 25.78612,39.429747 C 25.767509,39.704386 25.682564,39.964289 25.643998,40.234912 C 25.603172,40.521396 25.548217,40.762449 25.542999,41.072729 C 25.538051,41.367009 25.55592,41.649263 25.58668,41.934243 C 25.639321,42.172348 25.693508,42.413828 25.8179,42.618488 C 25.888887,42.684615 25.952058,42.754787 26.027626,42.81455 L 24.247844,44.076052 C 24.160406,43.994173 24.075458,43.910295 24.002463,43.811364 C 23.868087,43.570192 23.795275,43.302069 23.736437,43.026458 C 23.702672,42.722021 23.637615,42.416767 23.704981,42.112215 C 23.757831,41.832033 23.818437,41.562095 23.813277,41.272045 C 23.844225,40.997953 23.921405,40.739804 23.957205,40.469526 C 23.987168,40.18891 24.065131,39.917141 24.070288,39.635897 C 24.0689,39.328257 24.068045,39.020186 24.046476,38.713308 C 24.021683,38.428511 23.969521,38.150335 23.92699,37.868621 C 23.927243,37.547285 23.927757,37.225948 23.927706,36.904613 C 23.927176,36.592495 23.927356,36.280152 23.912546,35.968382 C 23.89538,35.68754 23.863616,35.409173 23.804729,35.135086 C 23.762528,34.817815 23.792738,34.495103 23.784008,34.175111 C 23.7842,33.853648 23.784556,33.532187 23.785009,33.210724 C 23.785244,32.884782 23.786214,32.558759 23.777922,32.232913 C 23.766753,31.907088 23.750272,31.579962 23.687532,31.260591 C 23.630825,30.94914 23.6357,30.637862 23.640902,30.320678 C 23.640803,29.999619 23.640622,29.67856 23.640384,29.357501 C 23.640252,29.025966 23.639783,28.694411 23.644,28.3629 C 23.650291,27.98853 23.66121,27.614064 23.692221,27.241081 C 23.74029,26.860586 23.818458,26.484916 23.806817,26.097939 C 23.823192,25.686349 23.842385,25.274469 23.90697,24.868069 C 23.94433,24.538385 23.917624,24.204872 23.92983,23.873154 C 23.937238,23.475776 23.951627,23.078468 23.986376,22.682754 C 24.020866,22.278406 24.095171,21.877811 24.07817,21.469715 C 24.092907,21.092419 24.121086,20.716127 24.17315,20.342773 C 24.219366,19.958911 24.240709,19.57709 24.199789,19.190037 L 26.085925,18.109538 z"
             sodipodi:nodetypes="cssssscssssssssssscsssssssccssssssscssssssssssssssscscc" />
          <path
             style="opacity:1;fill:#4e9a06;fill-opacity:1;stroke:none;stroke-width:1.79999995;stroke-linecap:round;stroke-miterlimit:4;stroke-dasharray:none;stroke-dashoffset:0;stroke-opacity:1"
             id="path2420"
             d="M 21.194192,20.240752 C 21.100061,19.583435 21.086546,18.921736 21.019183,18.261753 C 20.956384,17.418313 20.831372,16.580197 20.661975,15.748351 C 20.473842,14.886489 20.13635,14.07892 19.62536,13.324766 C 19.027809,12.394077 18.222172,11.580256 17.418006,10.782123 C 16.734333,10.040138 15.978027,9.35853 15.094165,8.7983718 C 14.316173,8.3226928 13.526422,7.8629618 12.701154,7.4518988 C 12.085681,7.1937118 11.459297,6.9501288 10.823084,6.7323188 C 10.26454,6.4637278 9.6604633,6.2881108 9.0492107,6.1374408 C 8.5482493,6.0202628 8.039598,5.9308198 7.5315812,5.8406148 C 7.05132,5.7957978 6.619754,5.6368668 6.1750958,5.486541 C 5.7443978,5.343982 5.296185,5.2495101 4.8479407,5.1601437 C 4.368833,5.0695506 3.8886917,4.983452 3.409882,4.8916392 C 3.0207305,4.8197264 2.6304898,4.7524126 2.2403932,4.6845396 L 5.3086887,3.4718089 C 5.6964089,3.5428169 6.084046,3.6142347 6.472731,3.6811503 C 6.9630242,3.7627273 7.4528559,3.8468402 7.9381174,3.949221 C 8.393873,4.0479311 8.8466085,4.1585449 9.2827217,4.3121486 C 9.7157335,4.4570259 10.157366,4.5567978 10.61552,4.623147 C 11.121676,4.7181119 11.627432,4.8173598 12.121808,4.9527124 C 12.732724,5.1251279 13.331958,5.324892 13.908307,5.5730368 C 14.536912,5.8070568 15.165569,6.0475158 15.755977,6.3492128 C 16.573483,6.7828308 17.371371,7.2444528 18.148171,7.7317368 C 19.01826,8.3289068 19.758093,9.0318688 20.444475,9.78839 C 21.252816,10.611741 22.076102,11.438573 22.726182,12.364937 C 23.239106,13.154989 23.586048,13.992713 23.794539,14.883105 C 23.974946,15.722346 24.100017,16.565222 24.172814,17.416746 C 24.203447,17.684036 24.248013,17.950146 24.272149,18.217942 C 24.306717,18.601498 24.289148,18.993649 24.482524,19.351846 L 21.194192,20.240752 z" />
          <path
             style="opacity:1;fill:#73d216;fill-opacity:1;stroke:none;stroke-width:1.79999995;stroke-linecap:round;stroke-miterlimit:4;stroke-dasharray:none;stroke-dashoffset:0;stroke-opacity:1"
             id="path2422"
             d="M 4.8852775,3.303898 C 4.648941,3.6702834 4.5169054,4.0771972 4.3831077,4.4783538 C 4.2404424,4.9408441 4.1395236,5.411856 4.0208913,5.8791898 C 3.9423927,6.3876848 3.9131861,6.9004498 3.8484297,7.4103498 C 3.7410128,7.9100268 3.8271559,8.4147478 3.8354054,8.9182608 C 3.8350411,9.432477 3.8301921,9.948091 3.8824273,10.460644 C 3.9835621,10.989221 4.1165868,11.509807 4.2815572,12.025589 C 4.3927368,12.427028 4.5827011,12.799367 4.7799065,13.171853 C 4.8958508,13.518185 5.0992241,13.824698 5.3214032,14.126044 C 5.6328818,14.509239 5.8531925,14.942491 6.2695225,15.249699 C 6.6325424,15.480582 7.0197578,15.653546 7.4442172,15.779796 C 7.8805525,15.881832 8.309565,15.961684 8.7213308,16.125144 C 9.0950726,16.275421 9.4939844,16.365645 9.8923238,16.450302 C 10.328428,16.514104 10.900267,16.772182 11.317388,16.86897 C 11.75758,16.971111 12.02675,17.03973 12.436424,17.18517 C 12.86422,17.337044 13.18107,17.462492 13.633748,17.542541 C 14.086223,17.609622 14.520638,17.688761 14.938637,17.854119 C 15.311984,18.005356 15.710468,18.096956 16.108721,18.18232 C 16.552447,18.273146 16.99926,18.351927 17.445723,18.431723 C 17.900207,18.512637 18.354681,18.593601 18.809103,18.67478 C 19.263284,18.755959 19.717417,18.837331 20.171552,18.918704 C 20.592828,19.041301 21.009604,19.025593 21.443634,19.025545 C 21.510733,19.028431 21.577985,19.039087 21.644932,19.034202 C 21.765032,19.025437 21.879843,18.984743 21.999605,18.972977 C 22.195151,18.953766 22.387777,18.964639 22.583177,18.976866 C 23.025023,19.016388 23.460659,19.094723 23.895625,19.171039 C 24.198344,19.224869 24.500783,19.279885 24.803272,19.334688 L 21.717406,20.553621 C 21.415365,20.499242 21.113374,20.444599 20.81052,20.393728 C 20.381578,20.323783 19.949782,20.252865 19.511928,20.249107 C 19.131083,20.258371 18.756454,20.327598 18.374327,20.303346 C 17.935313,20.300743 17.512978,20.223664 17.08579,20.138112 C 16.63171,20.056767 16.177627,19.975433 15.723487,19.894346 C 15.268944,19.813223 14.814323,19.732425 14.359849,19.651011 C 13.909229,19.569668 13.458131,19.489187 13.012215,19.389665 C 12.603134,19.293106 12.215774,19.157916 11.805447,19.062593 C 11.346908,18.956068 10.972657,18.844342 10.548397,18.76252 C 10.093347,18.681804 9.6377848,18.602672 9.1857525,18.509748 C 8.741838,18.413113 8.431866,18.376571 7.9753705,18.268389 C 7.539861,18.165181 7.1758038,18.072327 6.7207155,17.915436 C 6.3283551,17.745441 5.8898898,17.58958 5.5044223,17.432891 C 5.0947023,17.290824 4.7464744,17.099216 4.3362893,16.9564 C 3.8933436,16.796491 3.4749675,16.592044 3.1113461,16.316597 C 2.7240505,15.96052 2.4855702,15.51797 2.1479524,15.127634 C 1.9042808,14.816903 1.6738125,14.504175 1.5630306,14.135613 C 1.3675342,13.745481 1.2023643,13.348374 1.0796991,12.935464 C 0.92051585,12.402111 0.79259815,11.866608 0.680566,11.323902 C 0.60067937,10.804302 0.60060504,10.277746 0.61629996,9.754362 C 0.61567069,9.239595 0.49934531,8.7228698 0.60576567,8.2123808 C 0.68705757,7.6962048 0.73419577,7.1779078 0.77131772,6.6580298 C 0.87700168,6.1832898 1.0016226,5.7119558 1.129802,5.2414813 C 1.2434701,4.8293668 1.3880551,4.4252236 1.5543017,4.0268643 L 4.8852775,3.303898 z"
             sodipodi:nodetypes="csccscscsccscssssssscsssssccssssssssssscsscscscsccscc" />
          <path
             style="opacity:1;fill:url(#linearGradient2447);fill-opacity:1;stroke:none;stroke-width:1.79999995;stroke-linecap:round;stroke-miterlimit:4;stroke-dasharray:none;stroke-dashoffset:0;stroke-opacity:1"
             d="M 12.994271,17.308798 C 11.888131,17.033272 9.9457586,16.468518 8.6778938,16.053793 C 6.512967,15.345632 6.3321506,15.245535 5.7066911,14.408964 C 4.1768458,12.362748 3.505523,8.8873048 4.1292042,6.2422838 L 4.3735598,5.2059755 L 7.1212611,5.8442158 C 12.987559,7.2068438 15.868835,8.8453908 18.707736,12.433302 C 20.250418,14.382999 20.569456,15.243553 20.909827,18.373054 L 20.972747,18.951531 L 17.989084,18.380645 C 16.348076,18.066659 14.100408,17.584328 12.994269,17.3088 L 12.994271,17.308798 z"
             id="path2424" />
          <path
             style="opacity:1;fill:#4e9a06;fill-opacity:1;stroke:none;stroke-width:1.79999995;stroke-linecap:round;stroke-miterlimit:4;stroke-dasharray:none;stroke-dashoffset:0;stroke-opacity:1"
             id="path2426"
             d="M 24.57762,21.425257 C 24.828788,20.800073 25.002217,20.155772 25.227864,19.523056 C 25.493472,18.710178 25.818602,17.913953 26.185598,17.132024 C 26.578176,16.324204 27.103601,15.596939 27.785681,14.953813 C 28.595118,14.15406 29.579654,13.506834 30.558952,12.874672 C 31.406877,12.275219 32.31118,11.748149 33.310758,11.363266 C 34.186399,11.041476 35.069668,10.737438 35.975872,10.487508 C 36.639992,10.348401 37.31124,10.225577 37.985856,10.129754 C 38.596848,9.970001 39.229836,9.909507 39.863796,9.874718 C 40.381842,9.852369 40.90069,9.858547 41.419101,9.863862 C 41.899391,9.908435 42.359715,9.832505 42.830753,9.767394 C 43.286263,9.707307 43.747251,9.697446 44.207033,9.692581 C 44.697281,9.692197 45.187451,9.696397 45.677702,9.694766 C 46.075499,9.696087 46.473245,9.702104 46.870985,9.707548 L 44.165468,7.9574998 C 43.769291,7.9555578 43.373096,7.9540308 42.976967,7.9479108 C 42.47797,7.9374238 41.978809,7.9294998 41.479692,7.9402738 C 41.010305,7.9528888 40.540987,7.9776958 40.07751,8.0475818 C 39.619176,8.1095108 39.163334,8.1257628 38.69944,8.1063048 C 38.181695,8.1059848 37.663306,8.1099248 37.147296,8.1512488 C 36.508398,8.2073558 35.874298,8.2923448 35.250852,8.4288358 C 34.579748,8.5419028 33.907032,8.6612548 33.256878,8.8475038 C 32.352801,9.1209098 31.461118,9.425299 30.583835,9.758652 C 29.588757,10.182248 28.695388,10.733222 27.841293,11.346385 C 26.851807,12.002428 25.84687,12.659124 24.987136,13.444983 C 24.294473,14.122842 23.75251,14.877843 23.333124,15.709804 C 22.953576,16.496935 22.627235,17.297803 22.349899,18.116743 C 22.255235,18.372373 22.147239,18.624285 22.058806,18.881605 C 21.932146,19.250157 21.854367,19.636705 21.578618,19.951245 L 24.57762,21.425257 z" />
          <path
             style="opacity:1;fill:#73d216;fill-opacity:1;stroke:none;stroke-width:1.79999995;stroke-linecap:round;stroke-miterlimit:4;stroke-dasharray:none;stroke-dashoffset:0;stroke-opacity:1"
             id="path2428"
             d="M 44.619994,7.8712908 C 44.762292,8.2729118 44.792826,8.6949548 44.826476,9.1116958 C 44.853942,9.590018 44.838541,10.068988 44.841344,10.547623 C 44.794952,11.059106 44.699343,11.565691 44.639177,12.076019 C 44.623186,12.584204 44.416775,13.061699 44.286795,13.552348 C 44.162644,14.055045 44.042535,14.559933 43.867373,15.051324 C 43.640531,15.549379 43.384454,16.033755 43.098313,16.507556 C 42.892438,16.879489 42.616599,17.20848 42.333647,17.536282 C 42.136458,17.853474 41.863451,18.115654 41.573312,18.369324 C 41.176068,18.686564 40.855817,19.069511 40.374484,19.293181 C 39.963739,19.452057 39.543369,19.549866 39.097905,19.59516 C 38.646696,19.6146 38.208016,19.613704 37.765949,19.697706 C 37.364243,19.775818 36.952473,19.7906 36.542611,19.800045 C 36.100885,19.782155 35.479443,19.929185 35.048286,19.947031 C 34.593283,19.965864 34.313562,19.983403 33.877904,20.050176 C 33.422972,20.119902 33.082888,20.184215 32.621028,20.179156 C 32.162507,20.161459 31.718717,20.158871 31.270099,20.243581 C 30.868546,20.322705 30.45686,20.33891 30.046913,20.349062 C 29.591193,20.356184 29.135373,20.350965 28.679649,20.346803 C 28.215814,20.342257 27.751978,20.337762 27.288138,20.333487 C 26.824536,20.329256 26.360932,20.325223 25.897327,20.32119 C 25.455859,20.363499 25.052277,20.271448 24.628039,20.191528 C 24.561753,20.182001 24.493438,20.180041 24.429181,20.162946 C 24.313911,20.132278 24.211539,20.071372 24.097324,20.037832 C 23.910836,19.983069 23.71992,19.958249 23.525961,19.934242 C 23.084501,19.891562 22.639714,19.887964 22.19607,19.882516 C 21.887138,19.879425 21.578193,19.877545 21.269251,19.875448 L 23.99044,21.634791 C 24.298843,21.637221 24.607261,21.639383 24.915607,21.645391 C 25.351819,21.655958 25.791057,21.666099 26.219955,21.743002 C 26.589975,21.822142 26.939401,21.958751 27.31879,22.005366 C 27.748542,22.083611 28.180023,22.08599 28.6183,22.080979 C 29.081845,22.085029 29.54539,22.08909 30.008931,22.093404 C 30.472872,22.097756 30.936813,22.10244 31.40076,22.106495 C 31.860923,22.109911 32.321344,22.114256 32.781308,22.099037 C 33.204552,22.079935 33.615916,22.019075 34.040079,22.00141 C 34.514079,21.981668 34.906949,21.941331 35.341461,21.939427 C 35.805801,21.944271 36.270258,21.950757 36.734604,21.943112 C 37.191914,21.930346 37.503751,21.95167 37.976153,21.929932 C 38.426838,21.909194 38.805175,21.885428 39.287999,21.81582 C 39.712678,21.72186 40.179004,21.6502 40.593724,21.567977 C 41.028612,21.50451 41.415387,21.381302 41.850909,21.317189 C 42.322592,21.242396 42.781045,21.119548 43.203168,20.917223 C 43.667953,20.640441 44.008215,20.25175 44.432739,19.932339 C 44.746158,19.673452 45.047154,19.410182 45.24468,19.070312 C 45.530235,18.724947 45.787836,18.367183 46.007715,17.986151 C 46.292452,17.49411 46.54715,16.994213 46.788064,16.484353 C 46.991962,15.991162 47.119531,15.476485 47.230917,14.962006 C 47.356173,14.458954 47.594994,13.975279 47.614577,13.456709 C 47.660099,12.937204 47.73952,12.421911 47.829113,11.906917 C 47.84076,11.423425 47.833073,10.939779 47.821698,10.456317 C 47.810377,10.032571 47.766905,9.610927 47.700861,9.1909498 L 44.619994,7.8712908 z"
             sodipodi:nodetypes="csccscscsccscssssssscsssssccssssssssssscsscscscsccscc" />
          <path
             style="opacity:1;fill:url(#linearGradient2449);fill-opacity:1;stroke:none;stroke-width:1.79999995;stroke-linecap:round;stroke-miterlimit:4;stroke-dasharray:none;stroke-dashoffset:0;stroke-opacity:1"
             d="M 33.302693,20.06836 C 34.450622,20.0026 36.48597,19.808017 37.825684,19.635956 C 40.113297,19.342153 40.314275,19.277586 41.128202,18.574966 C 43.119029,16.856387 44.616739,13.582797 44.647555,10.882603 L 44.65963,9.824678 L 41.819302,9.942891 C 35.755256,10.195269 32.542159,11.266667 28.898481,14.251303 C 26.918477,15.873175 26.39826,16.655627 25.307808,19.651974 L 25.106238,20.205837 L 28.1609,20.196884 C 29.840956,20.19196 32.154764,20.134124 33.302693,20.068362 L 33.302693,20.06836 z"
             id="path2430" />
        </g>
      </g>
      <g
         inkscape:label="Trunk"
         id="g2568" />
      <g
         inkscape:label="Leaf1"
         id="layer2" />
      <g
         inkscape:label="Leaf2"
         id="layer3">
        <g
           id="g2401">
          <path
             style="opacity:1;fill:#ce5c00;fill-opacity:1;stroke:none;stroke-width:1.79999995;stroke-linecap:round;stroke-miterlimit:4;stroke-dasharray:none;stroke-dashoffset:0;stroke-opacity:1"
             id="path2390"
             d="M 23.654458,19.094102 C 23.590415,20.006275 23.583345,20.921411 23.551601,21.835378 C 23.483547,23.258993 23.459114,24.684366 23.436938,26.109589 C 23.431349,27.202528 23.443713,28.295342 23.459423,29.388098 C 23.471971,30.179404 23.467462,30.970856 23.462876,31.76222 C 23.467494,32.457607 23.475485,33.152963 23.480304,33.848338 C 23.481676,34.370446 23.485927,34.892518 23.492891,35.41457 C 23.496312,35.817096 23.508053,36.218986 23.464149,36.619106 C 23.407097,36.986722 23.381099,37.357994 23.367094,37.730388 C 23.354271,38.061952 23.374745,38.393731 23.325783,38.721936 C 23.266411,39.033922 23.259471,39.354171 23.19871,39.665451 C 23.128379,39.934534 23.116868,40.215926 23.057534,40.487235 C 22.996927,40.752313 22.96212,41.019844 22.878741,41.277749 C 22.788033,41.531745 22.65114,41.755401 22.575716,42.016315 C 22.529889,42.282119 22.451121,42.537572 22.406705,42.803618 C 22.393214,42.987353 22.353713,43.164815 22.312608,43.342491 L 20.420899,44.362456 C 20.456818,44.187923 20.520628,44.020724 20.525466,43.840542 C 20.556543,43.562247 20.632665,43.302633 20.684954,43.031537 C 20.742603,42.721094 20.84152,42.533018 20.973744,42.2621 C 21.082639,42.020136 21.120833,41.767265 21.163291,41.502452 C 21.234517,41.232206 21.257068,40.959381 21.30943,40.683397 C 21.385393,40.377134 21.40717,40.067616 21.447983,39.752822 C 21.462784,39.658244 21.489177,39.565785 21.497976,39.470266 C 21.518839,39.243782 21.485833,39.010846 21.508531,38.783978 C 21.522816,38.405253 21.541355,38.025067 21.597356,37.650843 C 21.655525,37.258515 21.654613,36.867797 21.649975,36.47031 C 21.656903,35.943457 21.661196,35.416588 21.662543,34.889682 C 21.667306,34.187794 21.675157,33.485926 21.679359,32.784024 C 21.674234,31.991486 21.668735,31.198842 21.681537,30.406357 C 21.698984,29.297221 21.71633,28.188075 21.738064,27.079037 C 21.755714,25.654591 21.804629,24.231263 21.842794,22.807398 C 21.856727,21.927841 21.841318,21.04818 21.774114,20.171285 L 23.654458,19.094102 z" />
          <path
             style="opacity:1;fill:#f57900;fill-opacity:1;stroke:none;stroke-width:1.79999995;stroke-linecap:round;stroke-miterlimit:4;stroke-dasharray:none;stroke-dashoffset:0;stroke-opacity:1"
             id="path2396"
             d="M 25.188208,18.145553 C 25.124165,19.057726 25.117095,19.97286 25.085351,20.886829 C 25.017297,22.310444 24.992864,23.735817 24.970688,25.16104 C 24.965099,26.253978 24.977463,27.346793 24.993173,28.439548 C 25.005721,29.230854 25.001212,30.022307 24.996626,30.813671 C 25.001244,31.509058 25.009235,32.204413 25.014054,32.899788 C 25.015426,33.421895 25.019677,33.943967 25.026641,34.466021 C 25.030062,34.868546 25.041803,35.270436 24.997899,35.670557 C 24.940847,36.038172 24.914849,36.409444 24.900844,36.781838 C 24.888021,37.113403 24.908495,37.445182 24.859533,37.773385 C 24.800161,38.085371 24.793221,38.405621 24.73246,38.716901 C 24.662129,38.985985 24.650618,39.267377 24.591284,39.538686 C 24.530677,39.803763 24.49587,40.071295 24.412491,40.329198 C 24.321783,40.583194 24.18489,40.806851 24.109466,41.067765 C 24.063639,41.333569 23.984871,41.589022 23.940455,41.855069 C 23.926964,42.038803 23.887463,42.216264 23.846358,42.393942 L 21.954649,43.413907 C 21.990568,43.239374 22.054378,43.072175 22.059216,42.891991 C 22.090293,42.613696 22.166415,42.354084 22.218704,42.082986 C 22.276353,41.772545 22.37527,41.584467 22.507494,41.313551 C 22.616389,41.071585 22.654583,40.818715 22.697041,40.553903 C 22.768267,40.283655 22.790818,40.01083 22.84318,39.734848 C 22.919143,39.428583 22.94092,39.119065 22.981733,38.804272 C 22.996534,38.709694 23.022927,38.617236 23.031726,38.521716 C 23.052589,38.295233 23.019583,38.062297 23.042281,37.835427 C 23.056566,37.456704 23.075105,37.076517 23.131106,36.702293 C 23.189275,36.309965 23.188363,35.919247 23.183725,35.52176 C 23.190653,34.994907 23.194946,34.468037 23.196293,33.941132 C 23.201056,33.239245 23.208907,32.537377 23.213109,31.835474 C 23.207984,31.042936 23.202485,30.250292 23.215287,29.457806 C 23.232734,28.348672 23.25008,27.239525 23.271814,26.130487 C 23.289464,24.706042 23.338379,23.282712 23.376544,21.858849 C 23.390477,20.979292 23.375068,20.099629 23.307864,19.222734 L 25.188208,18.145553 z" />
          <path
             style="opacity:1;fill:#ce5c00;fill-opacity:1;stroke:none;stroke-width:1.79999995;stroke-linecap:round;stroke-miterlimit:4;stroke-dasharray:none;stroke-dashoffset:0;stroke-opacity:1"
             id="path2398"
             d="M 26.085925,18.109538 C 26.059512,18.510575 26.074067,18.911918 26.031212,19.311595 C 25.98399,19.677522 25.955511,20.045608 25.940312,20.414815 C 25.939943,20.82954 25.88492,21.239209 25.839497,21.649777 C 25.801549,22.036169 25.792606,22.424983 25.787829,22.813353 C 25.781586,23.151692 25.797727,23.490261 25.771609,23.82757 C 25.715122,24.23412 25.673585,24.641924 25.653749,25.052792 C 25.662436,25.441539 25.610789,25.823551 25.562365,26.206846 C 25.514003,26.569581 25.507111,26.936969 25.502028,27.30304 C 25.499131,27.632467 25.500369,27.961916 25.500928,28.291351 C 25.501506,28.612412 25.501695,28.933472 25.501808,29.254534 C 25.502559,29.55489 25.486602,29.853487 25.536693,30.149611 C 25.590517,30.483089 25.616325,30.820591 25.632171,31.158659 C 25.644784,31.48715 25.645092,31.816018 25.645587,32.144749 C 25.645645,32.466238 25.6452,32.787726 25.64498,33.109216 C 25.65466,33.418231 25.625555,33.730251 25.658013,34.037727 C 25.713634,34.317331 25.749618,34.599668 25.769589,34.8851 C 25.787295,35.202304 25.80024,35.406719 25.801103,35.724416 C 25.801379,36.04602 25.800816,36.381823 25.800545,36.703426 C 25.822695,37.034568 25.82868,37.345817 25.838618,37.623179 C 25.851404,37.979989 25.827939,38.224789 25.829878,38.54005 C 25.847844,38.832674 25.827286,39.143777 25.78612,39.429747 C 25.767509,39.704386 25.682564,39.964289 25.643998,40.234912 C 25.603172,40.521396 25.548217,40.762449 25.542999,41.072729 C 25.538051,41.367009 25.55592,41.649263 25.58668,41.934243 C 25.639321,42.172348 25.693508,42.413828 25.8179,42.618488 C 25.888887,42.684615 25.952058,42.754787 26.027626,42.81455 L 24.247844,44.076052 C 24.160406,43.994173 24.075458,43.910295 24.002463,43.811364 C 23.868087,43.570192 23.795275,43.302069 23.736437,43.026458 C 23.702672,42.722021 23.637615,42.416767 23.704981,42.112215 C 23.757831,41.832033 23.818437,41.562095 23.813277,41.272045 C 23.844225,40.997953 23.921405,40.739804 23.957205,40.469526 C 23.987168,40.18891 24.065131,39.917141 24.070288,39.635897 C 24.0689,39.328257 24.068045,39.020186 24.046476,38.713308 C 24.021683,38.428511 23.969521,38.150335 23.92699,37.868621 C 23.927243,37.547285 23.927757,37.225948 23.927706,36.904613 C 23.927176,36.592495 23.927356,36.280152 23.912546,35.968382 C 23.89538,35.68754 23.863616,35.409173 23.804729,35.135086 C 23.762528,34.817815 23.792738,34.495103 23.784008,34.175111 C 23.7842,33.853648 23.784556,33.532187 23.785009,33.210724 C 23.785244,32.884782 23.786214,32.558759 23.777922,32.232913 C 23.766753,31.907088 23.750272,31.579962 23.687532,31.260591 C 23.630825,30.94914 23.6357,30.637862 23.640902,30.320678 C 23.640803,29.999619 23.640622,29.67856 23.640384,29.357501 C 23.640252,29.025966 23.639783,28.694411 23.644,28.3629 C 23.650291,27.98853 23.66121,27.614064 23.692221,27.241081 C 23.74029,26.860586 23.818458,26.484916 23.806817,26.097939 C 23.823192,25.686349 23.842385,25.274469 23.90697,24.868069 C 23.94433,24.538385 23.917624,24.204872 23.92983,23.873154 C 23.937238,23.475776 23.951627,23.078468 23.986376,22.682754 C 24.020866,22.278406 24.095171,21.877811 24.07817,21.469715 C 24.092907,21.092419 24.121086,20.716127 24.17315,20.342773 C 24.219366,19.958911 24.240709,19.57709 24.199789,19.190037 L 26.085925,18.109538 z"
             sodipodi:nodetypes="cssssscssssssssssscsssssssccssssssscssssssssssssssscscc" />
          <path
             style="opacity:1;fill:#4e9a06;fill-opacity:1;stroke:none;stroke-width:1.79999995;stroke-linecap:round;stroke-miterlimit:4;stroke-dasharray:none;stroke-dashoffset:0;stroke-opacity:1"
             id="path2401"
             d="M 21.194192,20.240752 C 21.100061,19.583435 21.086546,18.921736 21.019183,18.261753 C 20.956384,17.418313 20.831372,16.580197 20.661975,15.748351 C 20.473842,14.886489 20.13635,14.07892 19.62536,13.324766 C 19.027809,12.394077 18.222172,11.580256 17.418006,10.782123 C 16.734333,10.040138 15.978027,9.35853 15.094165,8.7983718 C 14.316173,8.3226928 13.526422,7.8629618 12.701154,7.4518988 C 12.085681,7.1937118 11.459297,6.9501288 10.823084,6.7323188 C 10.26454,6.4637278 9.6604633,6.2881108 9.0492107,6.1374408 C 8.5482493,6.0202628 8.039598,5.9308198 7.5315812,5.8406148 C 7.05132,5.7957978 6.619754,5.6368668 6.1750958,5.486541 C 5.7443978,5.343982 5.296185,5.2495101 4.8479407,5.1601437 C 4.368833,5.0695506 3.8886917,4.983452 3.409882,4.8916392 C 3.0207305,4.8197264 2.6304898,4.7524126 2.2403932,4.6845396 L 5.3086887,3.4718089 C 5.6964089,3.5428169 6.084046,3.6142347 6.472731,3.6811503 C 6.9630242,3.7627273 7.4528559,3.8468402 7.9381174,3.949221 C 8.393873,4.0479311 8.8466085,4.1585449 9.2827217,4.3121486 C 9.7157335,4.4570259 10.157366,4.5567978 10.61552,4.623147 C 11.121676,4.7181119 11.627432,4.8173598 12.121808,4.9527124 C 12.732724,5.1251279 13.331958,5.324892 13.908307,5.5730368 C 14.536912,5.8070568 15.165569,6.0475158 15.755977,6.3492128 C 16.573483,6.7828308 17.371371,7.2444528 18.148171,7.7317368 C 19.01826,8.3289068 19.758093,9.0318688 20.444475,9.78839 C 21.252816,10.611741 22.076102,11.438573 22.726182,12.364937 C 23.239106,13.154989 23.586048,13.992713 23.794539,14.883105 C 23.974946,15.722346 24.100017,16.565222 24.172814,17.416746 C 24.203447,17.684036 24.248013,17.950146 24.272149,18.217942 C 24.306717,18.601498 24.289148,18.993649 24.482524,19.351846 L 21.194192,20.240752 z" />
          <path
             style="opacity:1;fill:#73d216;fill-opacity:1;stroke:none;stroke-width:1.79999995;stroke-linecap:round;stroke-miterlimit:4;stroke-dasharray:none;stroke-dashoffset:0;stroke-opacity:1"
             id="path2409"
             d="M 4.8852775,3.303898 C 4.648941,3.6702834 4.5169054,4.0771972 4.3831077,4.4783538 C 4.2404424,4.9408441 4.1395236,5.411856 4.0208913,5.8791898 C 3.9423927,6.3876848 3.9131861,6.9004498 3.8484297,7.4103498 C 3.7410128,7.9100268 3.8271559,8.4147478 3.8354054,8.9182608 C 3.8350411,9.432477 3.8301921,9.948091 3.8824273,10.460644 C 3.9835621,10.989221 4.1165868,11.509807 4.2815572,12.025589 C 4.3927368,12.427028 4.5827011,12.799367 4.7799065,13.171853 C 4.8958508,13.518185 5.0992241,13.824698 5.3214032,14.126044 C 5.6328818,14.509239 5.8531925,14.942491 6.2695225,15.249699 C 6.6325424,15.480582 7.0197578,15.653546 7.4442172,15.779796 C 7.8805525,15.881832 8.309565,15.961684 8.7213308,16.125144 C 9.0950726,16.275421 9.4939844,16.365645 9.8923238,16.450302 C 10.328428,16.514104 10.900267,16.772182 11.317388,16.86897 C 11.75758,16.971111 12.02675,17.03973 12.436424,17.18517 C 12.86422,17.337044 13.18107,17.462492 13.633748,17.542541 C 14.086223,17.609622 14.520638,17.688761 14.938637,17.854119 C 15.311984,18.005356 15.710468,18.096956 16.108721,18.18232 C 16.552447,18.273146 16.99926,18.351927 17.445723,18.431723 C 17.900207,18.512637 18.354681,18.593601 18.809103,18.67478 C 19.263284,18.755959 19.717417,18.837331 20.171552,18.918704 C 20.592828,19.041301 21.009604,19.025593 21.443634,19.025545 C 21.510733,19.028431 21.577985,19.039087 21.644932,19.034202 C 21.765032,19.025437 21.879843,18.984743 21.999605,18.972977 C 22.195151,18.953766 22.387777,18.964639 22.583177,18.976866 C 23.025023,19.016388 23.460659,19.094723 23.895625,19.171039 C 24.198344,19.224869 24.500783,19.279885 24.803272,19.334688 L 21.717406,20.553621 C 21.415365,20.499242 21.113374,20.444599 20.81052,20.393728 C 20.381578,20.323783 19.949782,20.252865 19.511928,20.249107 C 19.131083,20.258371 18.756454,20.327598 18.374327,20.303346 C 17.935313,20.300743 17.512978,20.223664 17.08579,20.138112 C 16.63171,20.056767 16.177627,19.975433 15.723487,19.894346 C 15.268944,19.813223 14.814323,19.732425 14.359849,19.651011 C 13.909229,19.569668 13.458131,19.489187 13.012215,19.389665 C 12.603134,19.293106 12.215774,19.157916 11.805447,19.062593 C 11.346908,18.956068 10.972657,18.844342 10.548397,18.76252 C 10.093347,18.681804 9.6377848,18.602672 9.1857525,18.509748 C 8.741838,18.413113 8.431866,18.376571 7.9753705,18.268389 C 7.539861,18.165181 7.1758038,18.072327 6.7207155,17.915436 C 6.3283551,17.745441 5.8898898,17.58958 5.5044223,17.432891 C 5.0947023,17.290824 4.7464744,17.099216 4.3362893,16.9564 C 3.8933436,16.796491 3.4749675,16.592044 3.1113461,16.316597 C 2.7240505,15.96052 2.4855702,15.51797 2.1479524,15.127634 C 1.9042808,14.816903 1.6738125,14.504175 1.5630306,14.135613 C 1.3675342,13.745481 1.2023643,13.348374 1.0796991,12.935464 C 0.92051585,12.402111 0.79259815,11.866608 0.680566,11.323902 C 0.60067937,10.804302 0.60060504,10.277746 0.61629996,9.754362 C 0.61567069,9.239595 0.49934531,8.7228698 0.60576567,8.2123808 C 0.68705757,7.6962048 0.73419577,7.1779078 0.77131772,6.6580298 C 0.87700168,6.1832898 1.0016226,5.7119558 1.129802,5.2414813 C 1.2434701,4.8293668 1.3880551,4.4252236 1.5543017,4.0268643 L 4.8852775,3.303898 z"
             sodipodi:nodetypes="csccscscsccscssssssscsssssccssssssssssscsscscscsccscc" />
          <path
             style="opacity:1;fill:url(#linearGradient3197);fill-opacity:1;stroke:none;stroke-width:1.79999995;stroke-linecap:round;stroke-miterlimit:4;stroke-dasharray:none;stroke-dashoffset:0;stroke-opacity:1"
             d="M 12.994271,17.308798 C 11.888131,17.033272 9.9457586,16.468518 8.6778938,16.053793 C 6.512967,15.345632 6.3321506,15.245535 5.7066911,14.408964 C 4.1768458,12.362748 3.505523,8.8873048 4.1292042,6.2422838 L 4.3735598,5.2059755 L 7.1212611,5.8442158 C 12.987559,7.2068438 15.868835,8.8453908 18.707736,12.433302 C 20.250418,14.382999 20.569456,15.243553 20.909827,18.373054 L 20.972747,18.951531 L 17.989084,18.380645 C 16.348076,18.066659 14.100408,17.584328 12.994269,17.3088 L 12.994271,17.308798 z"
             id="path2417" />
          <path
             style="opacity:1;fill:#4e9a06;fill-opacity:1;stroke:none;stroke-width:1.79999995;stroke-linecap:round;stroke-miterlimit:4;stroke-dasharray:none;stroke-dashoffset:0;stroke-opacity:1"
             id="path3200"
             d="M 24.57762,21.425257 C 24.828788,20.800073 25.002217,20.155772 25.227864,19.523056 C 25.493472,18.710178 25.818602,17.913953 26.185598,17.132024 C 26.578176,16.324204 27.103601,15.596939 27.785681,14.953813 C 28.595118,14.15406 29.579654,13.506834 30.558952,12.874672 C 31.406877,12.275219 32.31118,11.748149 33.310758,11.363266 C 34.186399,11.041476 35.069668,10.737438 35.975872,10.487508 C 36.639992,10.348401 37.31124,10.225577 37.985856,10.129754 C 38.596848,9.970001 39.229836,9.909507 39.863796,9.874718 C 40.381842,9.852369 40.90069,9.858547 41.419101,9.863862 C 41.899391,9.908435 42.359715,9.832505 42.830753,9.767394 C 43.286263,9.707307 43.747251,9.697446 44.207033,9.692581 C 44.697281,9.692197 45.187451,9.696397 45.677702,9.694766 C 46.075499,9.696087 46.473245,9.702104 46.870985,9.707548 L 44.165468,7.9574998 C 43.769291,7.9555578 43.373096,7.9540308 42.976967,7.9479108 C 42.47797,7.9374238 41.978809,7.9294998 41.479692,7.9402738 C 41.010305,7.9528888 40.540987,7.9776958 40.07751,8.0475818 C 39.619176,8.1095108 39.163334,8.1257628 38.69944,8.1063048 C 38.181695,8.1059848 37.663306,8.1099248 37.147296,8.1512488 C 36.508398,8.2073558 35.874298,8.2923448 35.250852,8.4288358 C 34.579748,8.5419028 33.907032,8.6612548 33.256878,8.8475038 C 32.352801,9.1209098 31.461118,9.425299 30.583835,9.758652 C 29.588757,10.182248 28.695388,10.733222 27.841293,11.346385 C 26.851807,12.002428 25.84687,12.659124 24.987136,13.444983 C 24.294473,14.122842 23.75251,14.877843 23.333124,15.709804 C 22.953576,16.496935 22.627235,17.297803 22.349899,18.116743 C 22.255235,18.372373 22.147239,18.624285 22.058806,18.881605 C 21.932146,19.250157 21.854367,19.636705 21.578618,19.951245 L 24.57762,21.425257 z" />
          <path
             style="opacity:1;fill:#73d216;fill-opacity:1;stroke:none;stroke-width:1.79999995;stroke-linecap:round;stroke-miterlimit:4;stroke-dasharray:none;stroke-dashoffset:0;stroke-opacity:1"
             id="path3202"
             d="M 44.619994,7.8712908 C 44.762292,8.2729118 44.792826,8.6949548 44.826476,9.1116958 C 44.853942,9.590018 44.838541,10.068988 44.841344,10.547623 C 44.794952,11.059106 44.699343,11.565691 44.639177,12.076019 C 44.623186,12.584204 44.416775,13.061699 44.286795,13.552348 C 44.162644,14.055045 44.042535,14.559933 43.867373,15.051324 C 43.640531,15.549379 43.384454,16.033755 43.098313,16.507556 C 42.892438,16.879489 42.616599,17.20848 42.333647,17.536282 C 42.136458,17.853474 41.863451,18.115654 41.573312,18.369324 C 41.176068,18.686564 40.855817,19.069511 40.374484,19.293181 C 39.963739,19.452057 39.543369,19.549866 39.097905,19.59516 C 38.646696,19.6146 38.208016,19.613704 37.765949,19.697706 C 37.364243,19.775818 36.952473,19.7906 36.542611,19.800045 C 36.100885,19.782155 35.479443,19.929185 35.048286,19.947031 C 34.593283,19.965864 34.313562,19.983403 33.877904,20.050176 C 33.422972,20.119902 33.082888,20.184215 32.621028,20.179156 C 32.162507,20.161459 31.718717,20.158871 31.270099,20.243581 C 30.868546,20.322705 30.45686,20.33891 30.046913,20.349062 C 29.591193,20.356184 29.135373,20.350965 28.679649,20.346803 C 28.215814,20.342257 27.751978,20.337762 27.288138,20.333487 C 26.824536,20.329256 26.360932,20.325223 25.897327,20.32119 C 25.455859,20.363499 25.052277,20.271448 24.628039,20.191528 C 24.561753,20.182001 24.493438,20.180041 24.429181,20.162946 C 24.313911,20.132278 24.211539,20.071372 24.097324,20.037832 C 23.910836,19.983069 23.71992,19.958249 23.525961,19.934242 C 23.084501,19.891562 22.639714,19.887964 22.19607,19.882516 C 21.887138,19.879425 21.578193,19.877545 21.269251,19.875448 L 23.99044,21.634791 C 24.298843,21.637221 24.607261,21.639383 24.915607,21.645391 C 25.351819,21.655958 25.791057,21.666099 26.219955,21.743002 C 26.589975,21.822142 26.939401,21.958751 27.31879,22.005366 C 27.748542,22.083611 28.180023,22.08599 28.6183,22.080979 C 29.081845,22.085029 29.54539,22.08909 30.008931,22.093404 C 30.472872,22.097756 30.936813,22.10244 31.40076,22.106495 C 31.860923,22.109911 32.321344,22.114256 32.781308,22.099037 C 33.204552,22.079935 33.615916,22.019075 34.040079,22.00141 C 34.514079,21.981668 34.906949,21.941331 35.341461,21.939427 C 35.805801,21.944271 36.270258,21.950757 36.734604,21.943112 C 37.191914,21.930346 37.503751,21.95167 37.976153,21.929932 C 38.426838,21.909194 38.805175,21.885428 39.287999,21.81582 C 39.712678,21.72186 40.179004,21.6502 40.593724,21.567977 C 41.028612,21.50451 41.415387,21.381302 41.850909,21.317189 C 42.322592,21.242396 42.781045,21.119548 43.203168,20.917223 C 43.667953,20.640441 44.008215,20.25175 44.432739,19.932339 C 44.746158,19.673452 45.047154,19.410182 45.24468,19.070312 C 45.530235,18.724947 45.787836,18.367183 46.007715,17.986151 C 46.292452,17.49411 46.54715,16.994213 46.788064,16.484353 C 46.991962,15.991162 47.119531,15.476485 47.230917,14.962006 C 47.356173,14.458954 47.594994,13.975279 47.614577,13.456709 C 47.660099,12.937204 47.73952,12.421911 47.829113,11.906917 C 47.84076,11.423425 47.833073,10.939779 47.821698,10.456317 C 47.810377,10.032571 47.766905,9.610927 47.700861,9.1909498 L 44.619994,7.8712908 z"
             sodipodi:nodetypes="csccscscsccscssssssscsssssccssssssssssscsscscscsccscc" />
          <path
             style="opacity:1;fill:url(#linearGradient3206);fill-opacity:1;stroke:none;stroke-width:1.79999995;stroke-linecap:round;stroke-miterlimit:4;stroke-dasharray:none;stroke-dashoffset:0;stroke-opacity:1"
             d="M 33.302693,20.06836 C 34.450622,20.0026 36.48597,19.808017 37.825684,19.635956 C 40.113297,19.342153 40.314275,19.277586 41.128202,18.574966 C 43.119029,16.856387 44.616739,13.582797 44.647555,10.882603 L 44.65963,9.824678 L 41.819302,9.942891 C 35.755256,10.195269 32.542159,11.266667 28.898481,14.251303 C 26.918477,15.873175 26.39826,16.655627 25.307808,19.651974 L 25.106238,20.205837 L 28.1609,20.196884 C 29.840956,20.19196 32.154764,20.134124 33.302693,20.068362 L 33.302693,20.06836 z"
             id="path3204" />
        </g>
      </g>
    </g>
    <text
       xml:space="preserve"
       style="font-size:32px;font-style:normal;font-variant:normal;font-weight:normal;font-stretch:normal;text-align:start;line-height:100%;writing-mode:lr-tb;text-anchor:start;opacity:1;fill:#000000;fill-opacity:1;fill-rule:nonzero;stroke:none;stroke-width:1px;stroke-linecap:butt;stroke-linejoin:miter;marker:none;marker-start:none;marker-mid:none;marker-end:none;stroke-miterlimit:4;stroke-dasharray:none;stroke-dashoffset:0;stroke-opacity:1;visibility:visible;display:inline;overflow:visible;enable-background:accumulate;font-family:Garamond;-inkscape-font-specification:Garamond"
       x="79.166664"
       y="39.166668"
       id="text2582"
       sodipodi:linespacing="100%"><tspan
         sodipodi:role="line"
         id="tspan2584"
         x="79.166664"
         y="39.166668">Duality SVN</tspan></text>
  </g>
</svg>
