<?xml version="1.0" encoding="UTF-8" standalone="no"?>
<!-- Created with Inkscape (http://www.inkscape.org/) -->
<svg
   xmlns:dc="http://purl.org/dc/elements/1.1/"
   xmlns:cc="http://creativecommons.org/ns#"
   xmlns:rdf="http://www.w3.org/1999/02/22-rdf-syntax-ns#"
   xmlns:svg="http://www.w3.org/2000/svg"
   xmlns="http://www.w3.org/2000/svg"
   xmlns:sodipodi="http://sodipodi.sourceforge.net/DTD/sodipodi-0.dtd"
   xmlns:inkscape="http://www.inkscape.org/namespaces/inkscape"
   width="48px"
   height="48px"
   id="svg2383"
   sodipodi:version="0.32"
   inkscape:version="0.46"
   sodipodi:docname="duality_logo.svg"
   inkscape:output_extension="org.inkscape.output.svg.inkscape">
  <defs
     id="defs2385">
    <inkscape:perspective
       sodipodi:type="inkscape:persp3d"
       inkscape:vp_x="0 : 24 : 1"
       inkscape:vp_y="0 : 1000 : 0"
       inkscape:vp_z="48 : 24 : 1"
       inkscape:persp3d-origin="24 : 16 : 1"
       id="perspective2391" />
  </defs>
  <sodipodi:namedview
     id="base"
     pagecolor="#ffffff"
     bordercolor="#666666"
     borderopacity="1.0"
     inkscape:pageopacity="0.0"
     inkscape:pageshadow="2"
     inkscape:zoom="7"
     inkscape:cx="14.734885"
     inkscape:cy="23.810732"
     inkscape:current-layer="layer2"
     showgrid="true"
     inkscape:grid-bbox="true"
     inkscape:document-units="px"
     inkscape:window-width="937"
     inkscape:window-height="689"
     inkscape:window-x="82"
     inkscape:window-y="-8" />
  <metadata
     id="metadata2388">
    <rdf:RDF>
      <cc:Work
         rdf:about="">
        <dc:format>image/svg+xml</dc:format>
        <dc:type
           rdf:resource="http://purl.org/dc/dcmitype/StillImage" />
      </cc:Work>
    </rdf:RDF>
  </metadata>
  <g
     id="layer1"
     inkscape:label="Layer 1"
     inkscape:groupmode="layer"
     style="display:inline">
    <path
       sodipodi:type="arc"
       style="opacity:0.79203539;fill:#204a87;fill-opacity:0.92063491;stroke:none;stroke-width:1.79999995;stroke-linecap:round;stroke-miterlimit:4;stroke-dasharray:none;stroke-dashoffset:0;stroke-opacity:1"
       id="path2393"
       sodipodi:cx="24.928572"
       sodipodi:cy="25.785715"
       sodipodi:rx="21.5"
       sodipodi:ry="20.785715"
       d="M 46.428572,25.785715 A 21.5,20.785715 0 1 1 3.4285717,25.785715 A 21.5,20.785715 0 1 1 46.428572,25.785715 z"
       transform="matrix(1.0465116,0,0,1.0824742,-2.0880395,-3.9123713)" />
  </g>
  <g
     inkscape:groupmode="layer"
     id="layer2"
     inkscape:label="L2">
    <path
       sodipodi:type="arc"
       style="opacity:1;fill:#fce94f;fill-opacity:1;stroke:none;stroke-width:1.79999995;stroke-linecap:round;stroke-miterlimit:4;stroke-dasharray:none;stroke-dashoffset:0;stroke-opacity:1;display:inline"
       id="path2395"
       sodipodi:cx="24.928572"
       sodipodi:cy="25.785715"
       sodipodi:rx="21.5"
       sodipodi:ry="20.785715"
       d="M 29.022145,5.3802365 A 21.5,20.785715 0 0 1 22.63616,46.45294"
       transform="matrix(1.0465116,0,0,1.0824742,-2.0880395,-3.9123713)"
       sodipodi:open="true"
       sodipodi:start="4.9039573"
       sodipodi:end="7.9608085" />
  </g>
  <g
     inkscape:groupmode="layer"
     id="layer3"
     inkscape:label="Text">
    <g
       id="g3202"
       transform="matrix(1.5658774,0,0,1.5658774,-1.7714512,-14.214569)">
      <path
         d="M 8.5174187,16.423164 C 8.6804214,17.424464 8.7978741,18.432916 8.9290818,19.438952 C 9.1237023,20.858755 9.1875689,22.291251 9.2440268,23.721771 C 9.2759103,24.64268 9.299985,25.563856 9.3202513,26.485086 C 9.3285339,27.064144 9.3256789,27.641758 9.3620118,28.21985 C 9.3765133,28.536226 9.4168065,28.850021 9.4599861,29.163422 L 7.6856443,30.09679 C 7.6463515,29.780437 7.595616,29.465164 7.5773792,29.146606 C 7.5235186,28.561342 7.5184791,27.976758 7.5446615,27.38937 C 7.5683712,26.450122 7.5927298,25.510754 7.5872591,24.571083 C 7.5729785,23.138844 7.5206633,21.705037 7.3261189,20.284246 C 7.1791352,19.319198 7.0345192,18.335473 6.6596148,17.427827 L 8.5174187,16.423164 z"
         id="path3188"
         style="opacity:1;fill:#eeeeec;fill-opacity:1;stroke:none;stroke-width:1.79999995;stroke-linecap:round;stroke-miterlimit:4;stroke-dasharray:none;stroke-dashoffset:0;stroke-opacity:1" />
      <path
         d="M 6.1737473,17.475687 C 6.1981505,17.460961 6.2204454,17.441974 6.2469569,17.431509 C 6.288649,17.415052 6.4297457,17.310973 6.5049001,17.278922 C 6.6639429,17.211093 6.8798328,17.091334 7.0815436,17.033355 C 7.6074821,16.855296 8.1395158,16.514109 8.6817677,16.389775 C 9.1095602,16.23861 9.3381746,16.146613 9.8442693,16.179951 C 10.087665,16.138415 10.551539,16.228889 10.800304,16.314812 C 10.866094,16.337535 10.92397,16.378728 10.985802,16.410686 C 11.054114,16.441705 11.124854,16.467852 11.190736,16.503744 C 11.369933,16.601369 11.534806,16.723413 11.710586,16.827066 C 12.037981,17.020123 12.36062,17.206059 12.676501,17.418425 C 13.296235,17.807808 13.80337,18.346332 14.207854,18.951555 C 14.527494,19.48119 14.732336,20.05311 14.835682,20.660232 C 14.95693,21.243999 14.847976,21.79971 14.714494,22.368144 C 14.528714,23.144614 14.241068,23.894591 13.952211,24.637839 C 13.725735,25.243838 13.348203,25.753816 12.911327,26.222495 C 12.485675,26.691759 12.017796,27.11897 11.529818,27.522086 C 11.181193,27.790614 10.829975,28.055269 10.484361,28.327714 C 9.6532028,28.953403 8.7506814,29.505989 7.7895223,29.904983 C 7.1003026,30.334567 7.9159622,29.824043 9.3201753,29.033175 C 9.3641178,29.008426 9.2370597,29.090348 9.1963992,29.120184 C 9.0822542,29.203941 8.9718101,29.292343 8.8638193,29.383795 C 8.2184996,29.910847 7.4998587,30.202021 6.7405845,30.650861 C 6.1860194,30.978688 8.971059,29.360525 8.4167171,29.688729 C 8.3877019,29.705908 3.7478271,32.377926 8.1978625,29.81513 C 8.091604,29.873514 8.0006754,29.954127 7.9062884,30.029156 L 5.9725114,30.823791 C 6.0595545,30.727452 6.1590987,30.656921 6.2511192,30.565454 C 11.501913,27.529373 6.3082847,30.531814 6.4698428,30.440541 C 7.0381305,30.119484 10.648055,28.017601 6.7039034,30.314997 C 6.6249096,30.36101 7.0242187,30.132773 6.9295223,30.159078 C 7.0715606,30.053665 7.2404945,29.877591 7.3839716,29.791204 C 8.0122278,29.412933 8.6474429,29.046308 9.2822255,28.679094 C 9.3240079,28.654924 9.3695407,28.637912 9.4131983,28.617321 C 10.063099,28.302641 10.920534,27.763247 8.0897751,29.413363 C 8.036072,29.444668 8.198683,29.353215 8.2509819,29.319616 C 8.3641411,29.24692 8.4672726,29.15931 8.5828514,29.090116 C 8.9320356,28.810236 9.2845288,28.536413 9.6479755,28.275137 C 10.158588,27.894587 10.639766,27.468138 11.061932,26.990753 C 11.516914,26.54981 11.895027,26.041653 12.159946,25.463556 C 12.478672,24.748172 12.732382,23.999181 12.915727,23.237891 C 13.017772,22.69526 13.156654,22.163237 13.048165,21.607007 C 12.961435,21.02521 12.791324,20.469814 12.485977,19.961843 C 12.089853,19.380981 11.623024,18.851016 11.014927,18.483522 C 10.465293,18.128419 9.8887917,17.797469 9.2774477,17.562125 C 8.9709936,17.499323 8.6837509,17.557893 8.3818547,17.630116 C 7.9497418,17.69924 7.5177759,17.766776 7.0968707,17.891137 C 6.5569755,18.030052 6.0465447,18.251208 5.5149461,18.417269 C 5.1743288,18.53045 4.8305709,18.635797 4.5002103,18.775851 L 6.1737473,17.475687 z"
         id="path3192"
         style="opacity:1;fill:#eeeeec;fill-opacity:1;stroke:none;stroke-width:1.79999995;stroke-linecap:round;stroke-miterlimit:4;stroke-dasharray:none;stroke-dashoffset:0;stroke-opacity:1"
         sodipodi:nodetypes="csscccsssscccscccccsssssccccsscssssscccccccccccscc" />
    </g>
    <path
       style="opacity:1;fill:#73d216;fill-opacity:1;stroke:none;stroke-width:1.79999995;stroke-linecap:round;stroke-miterlimit:4;stroke-dasharray:none;stroke-dashoffset:0;stroke-opacity:1"
       id="path3196"
       d="M 33.483906,9.8586382 C 33.531197,9.5981039 33.443422,9.3625429 33.367607,9.1179969 C 33.276453,8.7982674 33.278899,8.6631287 32.952675,8.5426005 C 32.658414,8.4024352 32.338101,8.3598543 32.01707,8.3351619 C 31.682134,8.3151116 31.353183,8.2954773 31.030149,8.3952701 C 31.238872,8.2078453 30.270635,8.7480561 30.527394,8.5991296 C 33.41737,6.9228689 32.391479,7.4693549 31.824812,7.9015408 C 31.528737,8.1315831 31.37034,8.4328752 31.271704,8.7860181 C 31.141577,9.2952988 31.259383,9.7561272 31.469244,10.222352 C 31.708496,10.678192 32.13581,10.998222 32.586108,11.229953 C 32.915315,11.377907 33.276925,11.392061 33.631827,11.399133 C 33.91823,11.430703 34.126916,11.574986 34.257333,11.826893 C 34.356491,12.092288 34.357794,12.379289 34.35621,12.658905 C 34.335223,13.00258 34.2336,13.341464 34.09835,13.656923 C 33.949836,13.923815 33.769286,14.164974 33.562422,14.388427 C 32.564568,15.353519 32.001443,15.576986 30.939245,15.606436 C 30.496958,15.603844 30.051015,15.53399 29.623745,15.419811 C 29.148675,15.321415 28.708139,15.115289 28.241717,14.987294 C 28.034564,14.954037 27.834795,14.904403 27.633593,14.846019 L 29.355452,13.669411 C 29.549654,13.728455 29.747571,13.770225 29.942071,13.828075 C 30.391265,13.982393 30.825423,14.185706 31.297847,14.263809 C 31.724315,14.358014 32.164514,14.406885 32.60158,14.384907 C 32.737241,14.373975 32.822176,14.371675 32.95491,14.34349 C 33.00156,14.333584 33.047661,14.320589 33.092599,14.304627 C 33.130342,14.291221 33.23675,14.235171 33.202308,14.255615 C 31.703627,15.145211 30.934147,15.540889 31.632276,15.179765 C 31.868592,14.991378 32.040099,14.757171 32.205368,14.50791 C 32.378754,14.241894 32.455118,13.912182 32.509448,13.602781 C 32.501694,13.356769 32.510343,13.103615 32.436566,12.866147 C 32.341617,12.678567 32.152781,12.621497 31.951191,12.608991 C 31.577386,12.583811 31.199603,12.537524 30.869339,12.345974 C 30.41015,12.057837 29.969121,11.704265 29.715007,11.215681 C 29.477535,10.730963 29.322771,10.224941 29.422557,9.6805835 C 29.479748,9.2899002 29.623845,8.9478194 29.914108,8.6708969 C 30.705527,7.9760729 31.654421,7.4176121 32.672329,7.1436116 C 33.013499,7.0869953 33.356571,7.1045412 33.700121,7.1365395 C 34.040642,7.1748032 34.372122,7.2453722 34.683564,7.394563 C 35.028862,7.5758192 35.103583,7.7518358 35.188047,8.1204349 C 35.267213,8.3760069 35.37961,8.6230019 35.373237,8.8959756 L 33.483906,9.8586382 z" />
    <path
       style="opacity:1;fill:#73d216;fill-opacity:1;stroke:none;stroke-width:1.79999995;stroke-linecap:round;stroke-miterlimit:4;stroke-dasharray:none;stroke-dashoffset:0;stroke-opacity:1"
       id="path3198"
       d="M 30.938712,18.765591 C 31.147721,19.322478 31.326432,19.89215 31.541737,20.448292 C 31.961107,21.508156 32.29684,22.598602 32.730868,23.652585 C 32.875721,23.940216 32.963856,24.255618 33.138553,24.52834 C 33.161887,24.564767 33.182344,24.607753 33.219642,24.629667 C 33.233262,24.637669 33.265948,24.587775 33.251854,24.594909 C 32.64645,24.901352 32.046043,25.217567 31.443137,25.528897 C 31.638488,25.235504 31.614988,24.844158 31.651688,24.506192 C 31.675865,24.283559 31.731966,23.908894 31.76365,23.689295 C 31.912189,22.78173 32.029178,21.870343 32.296525,20.988356 C 32.558326,20.254821 32.987388,19.604816 33.462571,18.994366 C 33.518479,18.924347 33.574387,18.854328 33.630295,18.78431 L 35.49048,17.99316 C 35.428369,18.065821 35.366258,18.138482 35.304147,18.211144 C 34.795503,18.791249 34.355879,19.433878 34.069649,20.154243 C 33.767904,21.01652 33.630966,21.917911 33.52269,22.822887 C 33.441235,23.455653 33.40099,24.065022 33.383565,24.701822 C 32.748391,25.052791 32.129325,25.434641 31.478042,25.754731 C 31.454046,25.766524 31.403555,25.651465 31.360017,25.528883 C 31.249859,25.218737 31.159866,24.901321 31.037701,24.595326 C 30.651671,23.524379 30.368766,22.414606 29.88079,21.381657 C 29.63964,20.876515 29.395717,20.364128 29.129641,19.874191 L 30.938712,18.765591 z" />
    <path
       style="opacity:1;fill:#73d216;fill-opacity:1;stroke:none;stroke-width:1.79999995;stroke-linecap:round;stroke-miterlimit:4;stroke-dasharray:none;stroke-dashoffset:0;stroke-opacity:1"
       id="path3200"
       d="M 31.374506,31.913916 C 31.025931,32.255191 30.941179,32.792953 30.858416,33.25101 C 30.741772,34.094217 30.595972,34.933172 30.473391,35.775496 C 30.459579,35.886694 30.443728,35.997657 30.431955,36.109089 C 30.423798,36.186302 30.415838,36.263682 30.413615,36.341293 C 30.412558,36.37819 30.415937,36.415313 30.422142,36.451699 C 30.423137,36.457532 30.439914,36.461742 30.4346,36.464344 C 28.498501,37.412347 28.203372,37.991181 28.574865,37.30422 C 28.735258,36.775517 28.823821,36.232942 28.90923,35.688415 C 29.035671,34.970563 29.074793,34.241569 29.086444,33.513972 C 29.053752,32.514071 29.109509,32.874246 30.930579,32.035034 C 30.940639,32.030397 31.579442,32.714395 31.606915,32.744454 C 32.502859,33.686709 33.304753,34.710349 34.154776,35.692583 C 34.467306,36.00913 34.715048,36.415121 35.093836,36.664293 C 35.149519,36.700922 35.21158,36.736759 35.278013,36.742131 C 35.317403,36.745316 35.418102,36.668911 35.383337,36.687703 C 34.805066,37.000289 34.226097,37.311582 33.647477,37.623522 C 33.674023,37.594819 33.709748,37.572441 33.727115,37.537413 C 33.878904,37.231256 33.843643,36.406746 33.84852,36.059979 C 33.873225,34.972611 33.884657,33.885138 33.876351,32.797531 C 33.851089,32.060548 33.858823,31.325168 33.887414,30.58859 L 35.670524,29.695767 C 35.59509,30.441989 35.540976,31.18982 35.55711,31.940658 C 35.553835,33.014685 35.572089,34.08841 35.610405,35.161797 C 35.620647,35.719562 35.659986,36.284265 35.591014,36.838879 C 34.957473,37.196656 34.341961,37.588426 33.690392,37.912209 C 33.622651,37.945871 33.392568,37.712736 33.389407,37.709386 C 33.081499,37.383162 32.847466,36.993263 32.561748,36.649272 C 31.746355,35.63735 30.927363,34.621233 29.93672,33.771629 C 29.794618,33.649913 29.551905,33.422374 29.369917,33.329098 C 29.335194,33.311301 29.221934,33.335123 29.253991,33.312881 C 31.56872,31.706834 30.957474,31.686978 30.883213,32.607783 C 30.834979,33.342825 30.780765,34.077479 30.700546,34.809847 C 30.621833,35.332729 30.562274,35.858818 30.462782,36.377953 C 30.54264,37.197655 30.512662,36.535411 28.552227,37.450991 C 28.531893,37.460487 28.552028,37.405924 28.555422,37.383741 C 28.593568,37.134454 28.685854,36.895615 28.7027,36.642129 C 28.851911,35.806348 29.00395,34.971721 29.077487,34.124914 C 29.116857,33.805142 29.149529,33.478733 29.243234,33.168736 C 29.331331,32.877287 29.29549,33.066133 29.387117,32.828489 C 29.399847,32.795472 29.405229,32.760073 29.414284,32.725866 L 31.374506,31.913916 z" />
  </g>
</svg>
